<svg xmlns="http://www.w3.org/2000/svg" width="512" height="512" viewBox="0 0 512 512">
  <defs>
    <linearGradient id="gradOrange2" x1="0" y1="0" x2="0" y2="1">
      <stop offset="0%" stop-color="#ff8a33"/>
      <stop offset="100%" stop-color="#ff6a00"/>
    </linearGradient>
    <filter id="softGlow2" x="-50%" y="-50%" width="200%" height="200%">
      <feGaussianBlur stdDeviation="12" result="blur"/>
      <feColorMatrix type="matrix" values="
        1 0 0 0 0
        0 1 0 0 0
        0 0 1 0 0
        0 0 0 .4 0" result="glow"/>
      <feMerge>
        <feMergeNode in="glow"/>
        <feMergeNode in="SourceGraphic"/>
      </feMerge>
    </filter>
  </defs>
  <!-- Dark circular background -->
  <circle cx="256" cy="256" r="224" fill="#0f172a"/>
  <!-- Glow ring -->
  <circle cx="256" cy="256" r="224" fill="none" stroke="url(#gradOrange2)" stroke-width="10" filter="url(#softGlow2)"/>
  <!-- Wrench -->
  <g filter="url(#softGlow2)" transform="translate(0,-8)">
    <path d="M351 137a82 82 0 0 0-97 100l-98 98a36 36 0 1 0 51 51l98-98a82 82 0 0 0 100-99l-46 28a22 22 0 0 1-30-8l-8-14a22 22 0 0 1 8-30l22-14z"
          fill="url(#gradOrange2)"/>
    <circle cx="198" cy="362" r="12" fill="#0f172a"/>
  </g>
</svg>